<mxfile host="app.diagrams.net" modified="2021-10-04T11:42:40.164Z" agent="5.0 (Windows NT 10.0; Win64; x64) AppleWebKit/537.36 (KHTML, like Gecko) Chrome/92.0.4515.159 YaBrowser/21.8.3.614 Yowser/2.5 Safari/537.36" etag="xK8SmYOXoJAYa97gz37Y" version="15.4.1" type="github">
  <diagram id="yPxyJZ8AM_hMuL3Unpa9" name="complex gitflow">
    <mxGraphModel dx="813" dy="437" grid="1" gridSize="10" guides="1" tooltips="1" connect="1" arrows="1" fold="1" page="1" pageScale="1" pageWidth="1100" pageHeight="850" math="0" shadow="0">
      <root>
        <mxCell id="0" />
        <mxCell id="1" parent="0" />
        <UserObject label="Диаграмма взаимодействия" link="https://nvie.com/posts/a-successful-git-branching-model/" id="wKI6ZRJObfwbrz8CWHeB-1">
          <mxCell style="text;whiteSpace=wrap;html=1;fontStyle=1;fontSize=16;" vertex="1" parent="1">
            <mxGeometry x="410" y="50" width="427.75" height="20" as="geometry" />
          </mxCell>
        </UserObject>
        <mxCell id="wKI6ZRJObfwbrz8CWHeB-2" value="&lt;span&gt;&lt;/span&gt;&lt;span&gt;&lt;/span&gt;&lt;span&gt;&lt;font style=&quot;font-size: 15px&quot;&gt;Процесс: продажа программного продукта&lt;/font&gt;&lt;/span&gt;" style="text;whiteSpace=wrap;html=1;" vertex="1" parent="1">
          <mxGeometry x="363.5" y="80" width="307.75" height="30" as="geometry" />
        </mxCell>
        <mxCell id="wKI6ZRJObfwbrz8CWHeB-8" value="" style="edgeStyle=orthogonalEdgeStyle;rounded=0;orthogonalLoop=1;jettySize=auto;html=1;" edge="1" parent="1" source="wKI6ZRJObfwbrz8CWHeB-3" target="wKI6ZRJObfwbrz8CWHeB-4">
          <mxGeometry relative="1" as="geometry" />
        </mxCell>
        <mxCell id="wKI6ZRJObfwbrz8CWHeB-3" value="Заказчик" style="shape=umlActor;verticalLabelPosition=bottom;verticalAlign=top;html=1;outlineConnect=0;fillColor=#d5e8d4;strokeColor=#82b366;" vertex="1" parent="1">
          <mxGeometry x="50" y="220" width="30" height="60" as="geometry" />
        </mxCell>
        <mxCell id="wKI6ZRJObfwbrz8CWHeB-4" value="Отдел по работе с Заказчиками" style="rounded=0;whiteSpace=wrap;html=1;fontSize=15;fillColor=#dae8fc;strokeColor=#6c8ebf;" vertex="1" parent="1">
          <mxGeometry x="230" y="220" width="120" height="60" as="geometry" />
        </mxCell>
        <mxCell id="wKI6ZRJObfwbrz8CWHeB-5" value="Отдел разработки" style="rounded=0;whiteSpace=wrap;html=1;fontSize=15;fillColor=#dae8fc;strokeColor=#6c8ebf;" vertex="1" parent="1">
          <mxGeometry x="520" y="120" width="120" height="60" as="geometry" />
        </mxCell>
        <mxCell id="wKI6ZRJObfwbrz8CWHeB-6" value="Юридический отдел" style="rounded=0;whiteSpace=wrap;html=1;fontSize=15;fillColor=#dae8fc;strokeColor=#6c8ebf;" vertex="1" parent="1">
          <mxGeometry x="670" y="120" width="120" height="60" as="geometry" />
        </mxCell>
        <mxCell id="wKI6ZRJObfwbrz8CWHeB-7" value="Бухгалтерия" style="rounded=0;whiteSpace=wrap;html=1;fontSize=15;fillColor=#dae8fc;strokeColor=#6c8ebf;" vertex="1" parent="1">
          <mxGeometry x="370" y="120" width="120" height="60" as="geometry" />
        </mxCell>
        <mxCell id="wKI6ZRJObfwbrz8CWHeB-16" value="" style="endArrow=classic;startArrow=classic;html=1;rounded=0;edgeStyle=orthogonalEdgeStyle;exitX=1.015;exitY=0.345;exitDx=0;exitDy=0;exitPerimeter=0;entryX=0.085;entryY=1.05;entryDx=0;entryDy=0;entryPerimeter=0;" edge="1" parent="1" source="wKI6ZRJObfwbrz8CWHeB-4" target="wKI6ZRJObfwbrz8CWHeB-5">
          <mxGeometry width="50" height="50" relative="1" as="geometry">
            <mxPoint x="480" y="240" as="sourcePoint" />
            <mxPoint x="530" y="190" as="targetPoint" />
          </mxGeometry>
        </mxCell>
        <mxCell id="wKI6ZRJObfwbrz8CWHeB-18" value="" style="endArrow=classic;startArrow=classic;html=1;rounded=0;edgeStyle=orthogonalEdgeStyle;entryX=0;entryY=0.5;entryDx=0;entryDy=0;exitX=1;exitY=0.5;exitDx=0;exitDy=0;" edge="1" parent="1" source="wKI6ZRJObfwbrz8CWHeB-5" target="wKI6ZRJObfwbrz8CWHeB-6">
          <mxGeometry width="50" height="50" relative="1" as="geometry">
            <mxPoint x="600" y="240" as="sourcePoint" />
            <mxPoint x="650" y="190" as="targetPoint" />
          </mxGeometry>
        </mxCell>
        <mxCell id="wKI6ZRJObfwbrz8CWHeB-19" value="" style="endArrow=classic;startArrow=classic;html=1;rounded=0;edgeStyle=orthogonalEdgeStyle;entryX=0;entryY=0.5;entryDx=0;entryDy=0;" edge="1" parent="1" target="wKI6ZRJObfwbrz8CWHeB-5">
          <mxGeometry width="50" height="50" relative="1" as="geometry">
            <mxPoint x="487" y="150" as="sourcePoint" />
            <mxPoint x="503.5" y="160" as="targetPoint" />
          </mxGeometry>
        </mxCell>
        <mxCell id="wKI6ZRJObfwbrz8CWHeB-20" value="" style="endArrow=classic;startArrow=classic;html=1;rounded=0;edgeStyle=orthogonalEdgeStyle;exitX=1;exitY=0.5;exitDx=0;exitDy=0;" edge="1" parent="1" source="wKI6ZRJObfwbrz8CWHeB-4">
          <mxGeometry width="50" height="50" relative="1" as="geometry">
            <mxPoint x="650" y="230" as="sourcePoint" />
            <mxPoint x="700" y="180" as="targetPoint" />
          </mxGeometry>
        </mxCell>
        <mxCell id="wKI6ZRJObfwbrz8CWHeB-21" value="" style="endArrow=classic;startArrow=classic;html=1;rounded=0;edgeStyle=orthogonalEdgeStyle;entryX=0;entryY=0.5;entryDx=0;entryDy=0;exitX=0.667;exitY=0;exitDx=0;exitDy=0;exitPerimeter=0;" edge="1" parent="1" source="wKI6ZRJObfwbrz8CWHeB-4" target="wKI6ZRJObfwbrz8CWHeB-7">
          <mxGeometry width="50" height="50" relative="1" as="geometry">
            <mxPoint x="264.99" y="190" as="sourcePoint" />
            <mxPoint x="314.99" y="140" as="targetPoint" />
          </mxGeometry>
        </mxCell>
        <mxCell id="wKI6ZRJObfwbrz8CWHeB-30" value="" style="endArrow=none;dashed=1;html=1;dashPattern=1 3;strokeWidth=2;rounded=0;edgeStyle=orthogonalEdgeStyle;entryX=0.323;entryY=1.031;entryDx=0;entryDy=0;entryPerimeter=0;" edge="1" parent="1" source="wKI6ZRJObfwbrz8CWHeB-3" target="wKI6ZRJObfwbrz8CWHeB-5">
          <mxGeometry width="50" height="50" relative="1" as="geometry">
            <mxPoint x="200" y="400" as="sourcePoint" />
            <mxPoint x="250" y="350" as="targetPoint" />
            <Array as="points">
              <mxPoint x="65" y="310" />
              <mxPoint x="559" y="310" />
            </Array>
          </mxGeometry>
        </mxCell>
        <mxCell id="wKI6ZRJObfwbrz8CWHeB-31" value="&lt;span style=&quot;color: rgb(0 , 0 , 0) ; font-family: &amp;#34;helvetica&amp;#34; ; font-size: 12px ; font-style: normal ; font-weight: 400 ; letter-spacing: normal ; text-align: center ; text-indent: 0px ; text-transform: none ; word-spacing: 0px ; background-color: rgb(248 , 249 , 250) ; display: inline ; float: none&quot;&gt;Связь для разработки тех задания и разработки продукта&lt;br&gt;&lt;br&gt;&lt;/span&gt;" style="text;whiteSpace=wrap;html=1;" vertex="1" parent="1">
          <mxGeometry x="90" y="310" width="390" height="30" as="geometry" />
        </mxCell>
        <mxCell id="wKI6ZRJObfwbrz8CWHeB-32" value="&lt;span style=&quot;color: rgb(0 , 0 , 0) ; font-family: &amp;#34;helvetica&amp;#34; ; font-size: 12px ; font-style: normal ; font-weight: 400 ; letter-spacing: normal ; text-align: center ; text-indent: 0px ; text-transform: none ; word-spacing: 0px ; background-color: rgb(248 , 249 , 250) ; display: inline ; float: none&quot;&gt;Связь договорных взаимоотношений&lt;br&gt;&lt;/span&gt;" style="text;whiteSpace=wrap;html=1;" vertex="1" parent="1">
          <mxGeometry x="90" y="210" width="120" height="30" as="geometry" />
        </mxCell>
      </root>
    </mxGraphModel>
  </diagram>
</mxfile>
